<svg xmlns="http://www.w3.org/2000/svg" xmlns:xlink="http://www.w3.org/1999/xlink" width="172" height="50" viewBox="0 0 172 50">
  <defs>
    <polygon id="svg-badge_amazon-app-a" points="0 0 171.25 0 171.25 49.925 0 49.925"/>
  </defs>
  <g fill="none" fill-rule="evenodd">
    <mask id="svg-badge_amazon-app-b" fill="#fff">
      <use xlink:href="#svg-badge_amazon-app-a"/>
    </mask>
    <path fill="#0A0B09" d="M165,50 L6.25,50 C2.8125,50 0,47.1875 0,43.75 L0,6.25 C0,2.8125 2.8125,0 6.25,0 L165,0 C168.4375,0 171.25,2.8125 171.25,6.25 L171.25,43.75 C171.25,47.1875 168.4375,50 165,50" mask="url(#svg-badge_amazon-app-b)"/>
    <path fill="#FFF" d="M165,0 L6.25,0 C2.8125,0 0,2.8125 0,6.25 L0,43.75 C0,47.1875 2.8125,50 6.25,50 L165,50 C168.4375,50 171.25,47.1875 171.25,43.75 L171.25,6.25 C171.25,2.8125 168.4375,0 165,0 Z M165,1 C167.895,1 170.25,3.355 170.25,6.25 L170.25,43.75 C170.25,46.645 167.895,49 165,49 L6.25,49 C3.355,49 1,46.645 1,43.75 L1,6.25 C1,3.355 3.355,1 6.25,1 L165,1 L165,1 Z" mask="url(#svg-badge_amazon-app-b)"/>
    <path fill="#FFFFFE" d="M50.7075,37.80875 C46.8375,40.665 41.225,42.18375 36.3925,42.18375 C29.61875,42.18375 23.52,39.68 18.905,35.5125 C18.5425,35.185 18.86625,34.73875 19.30125,34.9925 C24.28125,37.88875 30.43875,39.635 36.79875,39.635 C41.08875,39.635 45.805,38.745 50.145,36.90375 C50.79875,36.62625 51.3475,37.335 50.7075,37.80875"/>
    <path fill="#FFFFFE" d="M52.31875 35.96875C51.82375 35.335 49.04625 35.66875 47.7975 35.8175 47.42 35.86375 47.36125 35.5325 47.70125 35.29375 49.91875 33.7375 53.54875 34.1875 53.97125 34.70875 54.39625 35.2325 53.85875 38.87375 51.7825 40.61125 51.4625 40.8775 51.15875 40.735 51.30125 40.3825 51.76875 39.21625 52.81375 36.60375 52.31875 35.96875M47.88625 24.29875L47.88625 22.78625C47.8875 22.55625 48.06 22.40375 48.27 22.40375L55.0475 22.40375C55.26375 22.40375 55.4375 22.56125 55.4375 22.785L55.4375 24.0825C55.43625 24.29875 55.2525 24.5825 54.9275 25.03375L51.4175 30.0475C52.72 30.01625 54.09875 30.21125 55.28375 30.8775 55.55 31.0275 55.62125 31.24875 55.6425 31.4675L55.6425 33.08125C55.6425 33.30375 55.39875 33.56125 55.1425 33.42625 53.0575 32.33375 50.28875 32.21375 47.98125 33.44 47.74625 33.565 47.49875 33.3125 47.49875 33.09L47.49875 31.55625C47.49875 31.31 47.50375 30.89 47.75125 30.51625L51.82 24.68 48.2775 24.68C48.06125 24.68 47.8875 24.52625 47.88625 24.29875M23.16125 33.745L21.1 33.745C20.90375 33.73125 20.7475 33.585 20.73125 33.39625L20.7325 22.8125C20.7325 22.60125 20.91 22.4325 21.13 22.4325L23.05 22.43125C23.2525 22.44125 23.4125 22.59375 23.425 22.78625L23.425 24.16875 23.46375 24.16875C23.965 22.8325 24.9075 22.20875 26.1775 22.20875 27.4675 22.20875 28.27625 22.8325 28.85375 24.16875 29.35375 22.8325 30.49 22.20875 31.7025 22.20875 32.56875 22.20875 33.51125 22.565 34.08875 23.36625 34.74375 24.2575 34.60875 25.54875 34.60875 26.685L34.6075 33.36375C34.6075 33.575 34.42875 33.745 34.21 33.745L32.15 33.745C31.9425 33.73125 31.78 33.5675 31.78 33.365L31.78 27.75375C31.78 27.30875 31.81875 26.195 31.72125 25.7725 31.5675 25.05875 31.10625 24.85875 30.51 24.85875 30.00875 24.85875 29.48875 25.1925 29.27625 25.72625 29.065 26.2625 29.085 27.1525 29.085 27.75375L29.085 33.36375C29.085 33.575 28.90625 33.745 28.6875 33.745L26.6275 33.745C26.42 33.73125 26.25625 33.5675 26.25625 33.365L26.255 27.75375C26.255 26.57375 26.4475 24.8375 24.985 24.8375 23.5025 24.8375 23.56 26.52875 23.56 27.75375L23.56 33.36375C23.56 33.575 23.38125 33.745 23.16125 33.745M61.2925 24.36875C59.77125 24.36875 59.6749904 26.44 59.6749904 27.73125 59.6749904 29.02375 59.65625 31.785 61.27375 31.785 62.87125 31.785 62.9475 29.5575 62.9475 28.2 62.9475 27.30875 62.90875 26.24 62.64 25.39375 62.40875 24.65875 61.94625 24.36875 61.2925 24.36875zM61.27375 22.20875C64.33375 22.20875 65.98875 24.8375 65.98875 28.1775 65.98875 31.40625 64.16125 33.9675 61.27375 33.9675 58.27 33.9675 56.63375 31.33875 56.63375 28.06625 56.63375 24.77 58.28875 22.20875 61.27375 22.20875L61.27375 22.20875zM69.9575 33.745L67.90375 33.745C67.6975 33.73125 67.53375 33.5675 67.53375 33.365L67.53 22.7775C67.5475 22.58375 67.71875 22.4325 67.92625 22.4325L69.83875 22.43125C70.01875 22.44125 70.1675 22.56375 70.205 22.7275L70.205 24.34625 70.24375 24.34625C70.82125 22.89875 71.63 22.20875 73.05375 22.20875 73.9775 22.20875 74.8825 22.5425 75.46 23.45625 75.99875 24.30125 75.99875 25.72625 75.99875 26.75125L75.99875 33.41125C75.97625 33.59875 75.8075 33.745 75.60375 33.745L73.53625 33.745C73.34625 33.7325 73.1925 33.59125 73.17 33.41125L73.17 27.665C73.17 26.5075 73.305 24.815 71.88 24.815 71.38 24.815 70.9175 25.14875 70.6875 25.66 70.3975 26.30625 70.35875 26.95125 70.35875 27.665L70.35875 33.36375C70.35625 33.575 70.1775 33.745 69.9575 33.745M44.56125 33.71875C44.425 33.84125 44.22875 33.84875 44.075 33.76625 43.39 33.1975 43.2675 32.93375 42.8925 32.3925 41.76125 33.545 40.96 33.89125 39.4925 33.89125 37.7575 33.89125 36.40625 32.82 36.40625 30.6775 36.40625 29.00375 37.31375 27.865 38.605 27.3075 39.72375 26.81625 41.28625 26.72625 42.4825 26.5925L42.4825 26.325C42.4825 25.8325 42.52125 25.25375 42.23125 24.83 41.98125 24.45 41.49875 24.29375 41.075 24.29375 40.2875 24.29375 39.58875 24.69625 39.4175 25.53125 39.38125 25.7175 39.245 25.90125 39.06 25.91125L37.06 25.695C36.89125 25.65625 36.70375 25.52125 36.7525 25.2625 37.2125 22.83875 39.40125 22.10625 41.36375 22.10625 42.3675 22.10625 43.67875 22.37375 44.47 23.1325 45.4725 24.07 45.37625 25.32 45.37625 26.6825L45.37625 29.89375C45.37625 30.86125 45.7775 31.285 46.155 31.805 46.28625 31.99375 46.31625 32.21625 46.1475 32.35375 45.72625 32.70625 44.97875 33.35625 44.56625 33.7225L44.56125 33.71875zM42.4825 28.69125C42.4825 29.495 42.5025 30.16375 42.0975 30.87875 41.76875 31.4575 41.2475 31.81625 40.66875 31.81625 39.87875 31.81625 39.41625 31.2125 39.41625 30.32 39.41625 28.56375 40.99125 28.24375 42.4825 28.24375L42.4825 28.69125 42.4825 28.69125zM17.53 33.71875C17.39375 33.84125 17.19625 33.84875 17.0425 33.76625 16.3575 33.1975 16.235 32.93375 15.86125 32.3925 14.72875 33.545 13.9275 33.89125 12.46125 33.89125 10.725 33.89125 9.375 32.82 9.375 30.6775 9.375 29.00375 10.28125 27.865 11.57375 27.3075 12.6925 26.81625 14.255 26.72625 15.45125 26.5925L15.45125 26.325C15.45125 25.8325 15.49 25.25375 15.2 24.83 14.94875 24.45 14.4675 24.29375 14.0425 24.29375 13.25625 24.29375 12.5575 24.69625 12.38625 25.53125 12.35 25.7175 12.21375 25.90125 12.0275 25.91125L10.02875 25.695C9.86 25.65625 9.6725 25.52125 9.72125 25.2625 10.18 22.83875 12.37 22.10625 14.3325 22.10625 15.33625 22.10625 16.6475 22.37375 17.43875 23.1325 18.44125 24.07 18.345 25.32 18.345 26.6825L18.345 29.89375C18.345 30.86125 18.74625 31.285 19.1225 31.805 19.25375 31.99375 19.28375 32.21625 19.11625 32.35375 18.695 32.70625 17.94625 33.35625 17.535 33.7225L17.53 33.71875zM15.45125 28.69125C15.45125 29.495 15.47 30.16375 15.065 30.87875 14.7375 31.4575 14.21625 31.81625 13.6375 31.81625 12.8475 31.81625 12.38375 31.2125 12.38375 30.32 12.38375 28.56375 13.96 28.24375 15.45125 28.24375L15.45125 28.69125 15.45125 28.69125zM85.07375 32.0575C85.49 32.0575 85.9275 31.96875 86.38625 31.7875 86.84625 31.61 87.29125 31.35375 87.72125 31.02375L87.72125 28.95625C86.96 28.79875 86.285 28.72 85.6975 28.72 84.205 28.72 83.45875 29.30125 83.45875 30.465 83.45875 30.96625 83.60125 31.3575 83.88875 31.6375 84.17625 31.9175 84.57 32.0575 85.07375 32.0575zM84.3625 33.86625C83.3575 33.86625 82.54375 33.565 81.91875 32.9625 81.29375 32.35875 80.98125 31.57625 80.98125 30.615 80.98125 29.5525 81.36625 28.705 82.13375 28.07375 82.90125 27.4425 83.93125 27.1275 85.22375 27.1275 85.98375 27.1275 86.8175 27.235 87.72125 27.44875L87.72125 26.17875C87.72125 25.4475 87.56375 24.9375 87.2475 24.65 86.9325 24.36375 86.37875 24.21875 85.59 24.21875 85.11625 24.21875 84.5925 24.2675 84.0175 24.36 83.44375 24.45375 82.89875 24.585 82.38125 24.7575 82.2375 24.8 82.11625 24.8225 82.015 24.8225 81.82875 24.8225 81.73625 24.68625 81.73625 24.41375L81.73625 23.61625C81.73625 23.41625 81.765 23.2725 81.82125 23.18625 81.87875 23.1 82.03 23.0075 82.27375 22.90625 83.39375 22.475 84.635 22.26 85.99875 22.26 87.40625 22.26 88.4425 22.5475 89.10875 23.1225 89.7775 23.695 90.1125 24.5925 90.1125 25.81375L90.1125 33.07C90.1125 33.385 89.95375 33.5425 89.63875 33.5425L88.49625 33.5425C88.18125 33.5425 88.00125 33.4 87.9575 33.1125L87.85 32.48875C87.3475 32.9175 86.7925 33.25625 86.1825 33.5 85.57125 33.745 84.96625 33.86625 84.3625 33.86625L84.3625 33.86625zM97.50375 31.7775C98.42125 31.7775 99.10375 31.465 99.54875 30.84 99.99375 30.21625 100.21625 29.26625 100.21625 27.9875 100.21625 26.72375 99.9975 25.7875 99.55875 25.1775 99.12125 24.5675 98.44375 24.26375 97.52375 24.26375 96.59125 24.26375 95.73 24.535 94.94 25.08125L94.94 30.9375C95.745 31.4975 96.59875 31.7775 97.50375 31.7775zM92.87375 37.97875C92.5575 37.97875 92.4 37.82 92.4 37.505L92.4 23.0575C92.4 22.74125 92.5575 22.58375 92.87375 22.58375L94.0575 22.58375C94.37375 22.58375 94.56 22.72625 94.6175 23.01375L94.7475 23.68125C95.24875 23.2225 95.805 22.87 96.41625 22.62625 97.025 22.3825 97.66125 22.26 98.32125 22.26 99.685 22.26 100.7725 22.77 101.58375 23.78875 102.39375 24.80875 102.8 26.17875 102.8 27.9025 102.8 29.09375 102.6025 30.13375 102.20875 31.02375 101.8125 31.91375 101.26375 32.59625 100.56 33.07 99.8575 33.5425 99.05375 33.78 98.14875 33.78 97.54625 33.78 96.965 33.67625 96.405 33.4675 95.845 33.26 95.35625 32.96875 94.94 32.59625L94.94 37.505C94.94 37.82 94.7825 37.97875 94.46625 37.97875L92.87375 37.97875 92.87375 37.97875zM109.73375 31.7775C110.65125 31.7775 111.33375 31.465 111.77875 30.84 112.22375 30.21625 112.44625 29.26625 112.44625 27.9875 112.44625 26.72375 112.2275 25.7875 111.79 25.1775 111.35125 24.5675 110.67375 24.26375 109.755 24.26375 108.8225 24.26375 107.96 24.535 107.17 25.08125L107.17 30.9375C107.975 31.4975 108.82875 31.7775 109.73375 31.7775zM105.10375 37.97875C104.7875 37.97875 104.63 37.82 104.63 37.505L104.63 23.0575C104.63 22.74125 104.7875 22.58375 105.10375 22.58375L106.2875 22.58375C106.60375 22.58375 106.79125 22.72625 106.8475 23.01375L106.9775 23.68125C107.47875 23.2225 108.03625 22.87 108.64625 22.62625 109.255 22.3825 109.89125 22.26 110.55125 22.26 111.915 22.26 113.0025 22.77 113.81375 23.78875 114.62375 24.80875 115.03 26.17875 115.03 27.9025 115.03 29.09375 114.8325 30.13375 114.43875 31.02375 114.0425 31.91375 113.49375 32.59625 112.79 33.07 112.0875 33.5425 111.28375 33.78 110.38 33.78 109.77625 33.78 109.195 33.67625 108.635 33.4675 108.075 33.26 107.58625 32.96875 107.17 32.59625L107.17 37.505C107.17 37.82 107.0125 37.97875 106.69625 37.97875L105.10375 37.97875 105.10375 37.97875zM119.795 33.86625C118.66125 33.86625 117.61375 33.68 116.65125 33.30625 116.4225 33.22 116.27375 33.13 116.21 33.03625 116.145 32.94375 116.11375 32.79 116.11375 32.57375L116.11375 31.79875C116.11375 31.51125 116.21375 31.3675 116.415 31.3675 116.515 31.3675 116.71625 31.41125 117.0175 31.4975 118.0375 31.785 118.955 31.9275 119.77375 31.9275 120.4925 31.9275 121.015 31.8175 121.345 31.595 121.67625 31.37125 121.84125 31.03125 121.84125 30.57125 121.84125 30.25625 121.74125 30 121.53875 29.8075 121.3375 29.61375 120.965 29.41625 120.42 29.21625L118.6325 28.52625C117.025 27.91 116.22125 26.90375 116.22125 25.5125 116.22125 24.5075 116.59375 23.71375 117.34 23.13125 118.0875 22.55 119.085 22.26 120.33375 22.26 121.2225 22.26 122.12 22.41125 123.025 22.71125 123.24125 22.78375 123.38375 22.86625 123.45625 22.96 123.5275 23.05375 123.56375 23.215 123.56375 23.44375L123.56375 24.19875C123.56375 24.35625 123.5375 24.4675 123.4875 24.53125 123.4375 24.59625 123.34875 24.62875 123.21875 24.62875 123.1475 24.62875 122.9675 24.5925 122.68 24.52125 121.77625 24.30625 121.04375 24.19875 120.485 24.19875 119.82375 24.19875 119.34 24.295 119.03125 24.48875 118.72125 24.6825 118.5675 24.9875 118.5675 25.40375 118.5675 25.72 118.67875 25.975 118.90125 26.16875 119.12375 26.36125 119.5225 26.57375 120.09625 26.80375L121.75375 27.44875C122.61625 27.78 123.2375 28.17375 123.6175 28.63375 123.9975 29.09375 124.18875 29.675 124.18875 30.3775 124.18875 31.455 123.8 32.305 123.025 32.92875 122.25 33.55375 121.1725 33.86625 119.795 33.86625M130.21625 33.69375C129.0825 33.69375 128.2425 33.42875 127.6975 32.8975 127.1525 32.36625 126.87875 31.555 126.87875 30.465L126.87875 24.52125 125.5 24.52125C125.185 24.52125 125.02625 24.36375 125.02625 24.0475L125.02625 23.42375C125.02625 23.23625 125.06375 23.10375 125.135 23.02375 125.20625 22.94625 125.32125 22.8925 125.48 22.8625L126.965 22.64875 127.2875 20.0425C127.3025 19.87 127.3525 19.7475 127.43875 19.67625 127.52375 19.605 127.65375 19.56875 127.82625 19.56875L128.94625 19.56875C129.26125 19.56875 129.42 19.7275 129.42 20.0425L129.42 22.58375 132.0675 22.58375C132.38375 22.58375 132.54125 22.74125 132.54125 23.0575L132.54125 24.0475C132.54125 24.36375 132.38375 24.52125 132.0675 24.52125L129.42 24.52125 129.42 30.335C129.42 30.82375 129.53875 31.17125 129.775 31.37875 130.0125 31.5875 130.41 31.69125 130.97 31.69125 131.3 31.69125 131.56625 31.66875 131.76625 31.62625 131.9675 31.58375 132.1325 31.56125 132.26125 31.56125 132.50625 31.56125 132.6275 31.69875 132.6275 31.97125L132.6275 32.74625C132.6275 32.97625 132.5875 33.1375 132.51 33.23 132.43 33.325 132.28375 33.4 132.0675 33.45625 131.465 33.615 130.84875 33.69375 130.21625 33.69375M138.5975 31.86375C140.405 31.86375 141.31 30.5925 141.31 28.0525 141.31 25.525 140.405 24.26375 138.5975 24.26375 136.78875 24.26375 135.88375 25.525 135.88375 28.0525 135.88375 30.5925 136.78875 31.86375 138.5975 31.86375zM138.5975 33.86625C136.93125 33.86625 135.6325 33.3525 134.7 32.32625 133.76625 31.3 133.3 29.87625 133.3 28.0525 133.3 26.23 133.76625 24.80875 134.7 23.78875 135.6325 22.77 136.93125 22.26 138.5975 22.26 140.2625 22.26 141.56125 22.77 142.49375 23.78875 143.4275 24.80875 143.89375 26.23 143.89375 28.0525 143.89375 29.87625 143.4275 31.3 142.49375 32.32625 141.56125 33.3525 140.2625 33.86625 138.5975 33.86625L138.5975 33.86625zM146.175 33.5425C145.85875 33.5425 145.70125 33.385 145.70125 33.07L145.70125 23.0575C145.70125 22.74125 145.85875 22.58375 146.175 22.58375L147.31625 22.58375C147.51875 22.58375 147.6575 22.61125 147.73625 22.66875 147.815 22.72625 147.87 22.835 147.8975 22.9925L148.15625 24.21875C148.73 23.58875 149.26875 23.1425 149.77125 22.885 150.27375 22.62625 150.81875 22.4975 151.4075 22.4975L151.49375 22.4975C151.68125 22.4975 151.835 22.515 151.95625 22.55 152.07875 22.5875 152.165 22.64875 152.215 22.73375 152.265 22.82 152.29125 22.9775 152.29125 23.2075L152.29125 24.37125C152.29125 24.6725 152.16125 24.8225 151.9025 24.8225 151.8175 24.8225 151.69875 24.815 151.5475 24.8 151.3975 24.7875 151.235 24.78 151.0625 24.78 150.00125 24.78 149.06125 25.05125 148.2425 25.5975L148.2425 33.07C148.2425 33.385 148.085 33.5425 147.76875 33.5425L146.175 33.5425M160.18875 26.97625L160.18875 26.80375C160.18875 25.92875 159.99875 25.26 159.6175 24.8 159.23875 24.34125 158.68125 24.11125 157.94875 24.11125 157.17375 24.11125 156.5425 24.37125 156.055 24.8875 155.56625 25.40375 155.28625 26.1 155.215 26.97625L160.18875 26.97625zM158.38 33.86625C156.57125 33.86625 155.2 33.37875 154.2675 32.40125 153.33375 31.42625 152.8675 30.00375 152.8675 28.13875 152.8675 26.2875 153.32375 24.84375 154.235 23.81 155.14625 22.77625 156.42125 22.26 158.05625 22.26 159.46375 22.26 160.54375 22.645 161.2975 23.4125 162.05125 24.18 162.4275 25.2675 162.4275 26.67375 162.4275 27.1625 162.3925 27.6725 162.32 28.2025 162.29125 28.38875 162.2375 28.515 162.15875 28.58 162.08 28.64375 161.97625 28.6775 161.84625 28.6775L155.215 28.6775C155.2575 29.7675 155.5625 30.56875 156.13 31.0775 156.69625 31.5875 157.57 31.8425 158.74625 31.8425 159.60625 31.8425 160.51125 31.70625 161.45875 31.4325 161.57375 31.40375 161.66 31.3825 161.7175 31.3675 161.775 31.35375 161.825 31.3475 161.86875 31.3475 162.08375 31.3475 162.19125 31.49 162.19125 31.7775L162.19125 32.5525C162.19125 32.7675 162.15875 32.92125 162.095 33.01625 162.03 33.10875 161.8825 33.19875 161.6525 33.28375 160.69125 33.6725 159.6 33.86625 158.38 33.86625L158.38 33.86625zM59.9075 15C60.155 15 60.41375 14.95125 60.68375 14.85375 60.95375 14.75625 61.2125 14.61375 61.46 14.42625L61.46 13.27875C61.055 13.18125 60.6575 13.1325 60.2675 13.1325 59.42 13.1325 58.99625 13.45875 58.99625 14.11125 58.99625 14.39625 59.075 14.61625 59.2325 14.76875 59.39 14.9225 59.615 15 59.9075 15zM59.6375 15.84375C59.105 15.84375 58.68 15.6925 58.36125 15.3875 58.0425 15.08375 57.8825 14.6775 57.8825 14.1675 57.8825 13.62 58.0775 13.1825 58.4675 12.8575 58.8575 12.53 59.3825 12.3675 60.0425 12.3675 60.4625 12.3675 60.935 12.43125 61.46 12.55875L61.46 11.81625C61.46 11.41125 61.36875 11.12625 61.185 10.96125 61.00125 10.79625 60.6875 10.71375 60.245 10.71375 59.7275 10.71375 59.22125 10.78875 58.72625 10.93875 58.55375 10.99125 58.445 11.0175 58.4 11.0175 58.31 11.0175 58.265 10.95 58.265 10.815L58.265 10.51125C58.265 10.41375 58.28 10.3425 58.31 10.2975 58.34 10.2525 58.4 10.21125 58.49 10.17375 58.7225 10.06875 59.0175 9.985 59.3725 9.92 59.73 9.8575 60.08375 9.825 60.43625 9.825 61.14875 9.825 61.67375 9.9725 62.01125 10.27 62.34875 10.56625 62.5175 11.0175 62.5175 11.625L62.5175 15.4725C62.5175 15.6225 62.4425 15.6975 62.2925 15.6975L61.80875 15.6975C61.66625 15.6975 61.58375 15.62625 61.56125 15.48375L61.505 15.1125C61.235 15.345 60.93625 15.525 60.61125 15.6525 60.28375 15.78 59.96 15.84375 59.6375 15.84375L59.6375 15.84375zM65.6 15.6975C65.495 15.6975 65.41875 15.6825 65.37 15.6525 65.32125 15.6225 65.27 15.53625 65.2175 15.39375L63.22625 10.39875C63.21125 10.35375 63.195 10.30875 63.17625 10.26375 63.1575 10.21875 63.14875 10.1775 63.14875 10.14 63.14875 10.0425 63.20375 9.99375 63.31625 9.99375L63.98125 9.99375C64.0925 9.99375 64.17125 10.00875 64.21625 10.03875 64.26125 10.06875 64.31 10.155 64.3625 10.2975L65.90375 14.685 67.445 10.2975C67.4975 10.155 67.54625 10.06875 67.59125 10.03875 67.63625 10.00875 67.715 9.99375 67.8275 9.99375L68.44625 9.99375C68.55875 9.99375 68.61625 10.0425 68.61625 10.14 68.61625 10.1775 68.60625 10.21875 68.5875 10.26375 68.56875 10.30875 68.55125 10.35375 68.5375 10.39875L66.55625 15.39375C66.50375 15.53625 66.45375 15.6225 66.405 15.6525 66.35625 15.6825 66.27875 15.6975 66.17375 15.6975L65.6 15.6975M71.09 15C71.3375 15 71.59625 14.95125 71.86625 14.85375 72.13625 14.75625 72.395 14.61375 72.6425 14.42625L72.6425 13.27875C72.2375 13.18125 71.84 13.1325 71.45 13.1325 70.6025 13.1325 70.17875 13.45875 70.17875 14.11125 70.17875 14.39625 70.2575 14.61625 70.415 14.76875 70.5725 14.9225 70.7975 15 71.09 15zM70.82 15.84375C70.2875 15.84375 69.8625 15.6925 69.54375 15.3875 69.22375 15.08375 69.065 14.6775 69.065 14.1675 69.065 13.62 69.26 13.1825 69.65 12.8575 70.04 12.53 70.565 12.3675 71.225 12.3675 71.645 12.3675 72.1175 12.43125 72.6425 12.55875L72.6425 11.81625C72.6425 11.41125 72.55 11.12625 72.3675 10.96125 72.1825 10.79625 71.87 10.71375 71.4275 10.71375 70.91 10.71375 70.40375 10.78875 69.90875 10.93875 69.73625 10.99125 69.6275 11.0175 69.5825 11.0175 69.4925 11.0175 69.4475 10.95 69.4475 10.815L69.4475 10.51125C69.4475 10.41375 69.4625 10.3425 69.4925 10.2975 69.5225 10.2525 69.5825 10.21125 69.6725 10.17375 69.905 10.06875 70.2 9.985 70.555 9.92 70.91125 9.8575 71.26625 9.825 71.61875 9.825 72.33125 9.825 72.85625 9.9725 73.19375 10.27 73.53125 10.56625 73.7 11.0175 73.7 11.625L73.7 15.4725C73.7 15.6225 73.625 15.6975 73.475 15.6975L72.99125 15.6975C72.84875 15.6975 72.76625 15.62625 72.74375 15.48375L72.6875 15.1125C72.4175 15.345 72.11875 15.525 71.79375 15.6525 71.46625 15.78 71.1425 15.84375 70.82 15.84375L70.82 15.84375zM75.455 15.6975C75.305 15.6975 75.23 15.6225 75.23 15.4725L75.23 10.21875C75.23 10.06875 75.305 9.99375 75.455 9.99375L76.11875 9.99375C76.2675 9.99375 76.34375 10.06875 76.34375 10.21875L76.34375 15.4725C76.34375 15.6225 76.2675 15.6975 76.11875 15.6975L75.455 15.6975zM75.7925 8.98125C75.575 8.98125 75.40375 8.92 75.28 8.79625 75.15625 8.67125 75.095 8.50875 75.095 8.30625 75.095 8.10375 75.15625 7.94 75.28 7.81625 75.40375 7.69375 75.575 7.63125 75.7925 7.63125 76.01 7.63125 76.18 7.69375 76.30375 7.81625 76.42875 7.94 76.49 8.10375 76.49 8.30625 76.49 8.50875 76.42875 8.67125 76.30375 8.79625 76.18 8.92 76.01 8.98125 75.7925 8.98125L75.7925 8.98125zM79.11125 15.75375C78.71375 15.75375 78.41 15.64 78.2 15.41125 77.99 15.18125 77.885 14.85375 77.885 14.42625L77.885 7.5975C77.885 7.4475 77.96 7.3725 78.11 7.3725L78.77375 7.3725C78.92375 7.3725 78.99875 7.4475 78.99875 7.5975L78.99875 14.35875C78.99875 14.53125 79.03375 14.6575 79.10625 14.73625 79.17625 14.815 79.295 14.85375 79.46 14.85375 79.505 14.85375 79.5525 14.85 79.60125 14.8425 79.65 14.835 79.6925 14.83125 79.73 14.83125 79.805 14.83125 79.855 14.85 79.8825 14.8875 79.90875 14.925 79.92125 14.98125 79.92125 15.05625L79.92125 15.41625C79.92125 15.49125 79.905 15.55 79.87 15.59125 79.83625 15.6325 79.77875 15.66375 79.69625 15.68625 79.50875 15.73125 79.31375 15.75375 79.11125 15.75375M82.5875 15C82.835 15 83.09375 14.95125 83.36375 14.85375 83.63375 14.75625 83.8925 14.61375 84.14 14.42625L84.14 13.27875C83.735 13.18125 83.3375 13.1325 82.9475 13.1325 82.1 13.1325 81.67625 13.45875 81.67625 14.11125 81.67625 14.39625 81.755 14.61625 81.9125 14.76875 82.07 14.9225 82.295 15 82.5875 15zM82.3175 15.84375C81.785 15.84375 81.35875 15.6925 81.04 15.3875 80.72125 15.08375 80.5625 14.6775 80.5625 14.1675 80.5625 13.62 80.7575 13.1825 81.1475 12.8575 81.53625 12.53 82.0625 12.3675 82.7225 12.3675 83.1425 12.3675 83.615 12.43125 84.14 12.55875L84.14 11.81625C84.14 11.41125 84.0475 11.12625 83.86375 10.96125 83.68 10.79625 83.3675 10.71375 82.925 10.71375 82.4075 10.71375 81.90125 10.78875 81.40625 10.93875 81.23375 10.99125 81.125 11.0175 81.08 11.0175 80.99 11.0175 80.945 10.95 80.945 10.815L80.945 10.51125C80.945 10.41375 80.96 10.3425 80.99 10.2975 81.02 10.2525 81.08 10.21125 81.16875 10.17375 81.40125 10.06875 81.69625 9.985 82.0525 9.92 82.40875 9.8575 82.7625 9.825 83.11625 9.825 83.8275 9.825 84.35375 9.9725 84.69125 10.27 85.02875 10.56625 85.1975 11.0175 85.1975 11.625L85.1975 15.4725C85.1975 15.6225 85.1225 15.6975 84.97125 15.6975L84.48875 15.6975C84.34625 15.6975 84.2625 15.62625 84.24125 15.48375L84.185 15.1125C83.915 15.345 83.61625 15.525 83.29 15.6525 82.96375 15.78 82.64 15.84375 82.3175 15.84375L82.3175 15.84375zM89.28125 14.92125C90.31625 14.92125 90.83375 14.22375 90.83375 12.82875 90.83375 12.11625 90.7075 11.5875 90.45625 11.2425 90.205 10.8975 89.82 10.725 89.3025 10.725 88.77125 10.725 88.2675 10.8975 87.795 11.2425L87.795 14.38125C88.2675 14.74125 88.76375 14.92125 89.28125 14.92125zM89.54 15.82125C88.85 15.82125 88.24625 15.58125 87.72875 15.10125L87.65 15.4725C87.6275 15.6225 87.54 15.6975 87.39125 15.6975L86.90625 15.6975C86.75625 15.6975 86.6825 15.6225 86.6825 15.4725L86.6825 7.5975C86.6825 7.4475 86.75625 7.3725 86.90625 7.3725L87.57125 7.3725C87.72125 7.3725 87.795 7.4475 87.795 7.5975L87.795 10.53375C88.3575 10.06125 88.96625 9.825 89.6175 9.825 90.345 9.825 90.91875 10.0875 91.33875 10.6125 91.75875 11.1375 91.97 11.8575 91.97 12.7725 91.97 13.695 91.7475 14.43375 91.30625 14.98875 90.8625 15.54375 90.275 15.82125 89.54 15.82125L89.54 15.82125zM94.4 15.75375C94.0025 15.75375 93.69875 15.64 93.48875 15.41125 93.27875 15.18125 93.17375 14.85375 93.17375 14.42625L93.17375 7.5975C93.17375 7.4475 93.24875 7.3725 93.39875 7.3725L94.0625 7.3725C94.2125 7.3725 94.2875 7.4475 94.2875 7.5975L94.2875 14.35875C94.2875 14.53125 94.3225 14.6575 94.395 14.73625 94.465 14.815 94.58375 14.85375 94.74875 14.85375 94.79375 14.85375 94.84 14.85 94.88875 14.8425 94.9375 14.835 94.98125 14.83125 95.01875 14.83125 95.09375 14.83125 95.14375 14.85 95.17125 14.8875 95.19625 14.925 95.21 14.98125 95.21 15.05625L95.21 15.41625C95.21 15.49125 95.1925 15.55 95.16 15.59125 95.12625 15.6325 95.0675 15.66375 94.985 15.68625 94.7975 15.73125 94.6025 15.75375 94.4 15.75375M99.8 12.345C99.8075 12.285 99.81125 12.1875 99.81125 12.0525 99.81125 11.595 99.705 11.25 99.49 11.0175 99.27625 10.785 98.96375 10.66875 98.55125 10.66875 98.07875 10.66875 97.71125 10.80875 97.44875 11.09 97.18625 11.3725 97.03625 11.79 96.99875 12.345L99.8 12.345zM98.72 15.86625C97.79625 15.86625 97.1 15.61125 96.6275 15.10125 96.155 14.59125 95.9175 13.8375 95.9175 12.84 95.9175 11.8875 96.155 11.14625 96.6275 10.61875 97.1 10.09 97.76 9.825 98.6075 9.825 99.32 9.825 99.8675 10.025 100.25 10.4275 100.6325 10.82875 100.82375 11.39625 100.82375 12.13125 100.82375 12.37125 100.805 12.615 100.76625 12.8625 100.7525 12.9525 100.7275 13.0125 100.695 13.0425 100.66 13.0725 100.605 13.0875 100.53125 13.0875L96.99875 13.0875C97.0125 13.7325 97.1725 14.20875 97.47625 14.51625 97.78125 14.82375 98.25125 14.9775 98.8875 14.9775 99.11375 14.9775 99.32875 14.9625 99.535 14.9325 99.74125 14.9025 100.0025 14.83875 100.3175 14.74125 100.37 14.72625 100.415 14.7125 100.45125 14.7025 100.49 14.69 100.52375 14.685 100.5525 14.685 100.65 14.685 100.7 14.7525 100.7 14.8875L100.7 15.2025C100.7 15.3 100.685 15.37 100.65375 15.41125 100.625 15.4525 100.56 15.495 100.46375 15.54 100.2375 15.6375 99.97125 15.71625 99.65875 15.77625 99.3475 15.83625 99.03375 15.86625 98.72 15.86625L98.72 15.86625zM106.43625 15C106.685 15 106.94375 14.95125 107.2125 14.85375 107.4825 14.75625 107.74125 14.61375 107.99 14.42625L107.99 13.27875C107.58375 13.18125 107.18625 13.1325 106.79625 13.1325 105.94875 13.1325 105.525 13.45875 105.525 14.11125 105.525 14.39625 105.60375 14.61625 105.76125 14.76875 105.91875 14.9225 106.14375 15 106.43625 15zM106.1675 15.84375C105.63375 15.84375 105.20875 15.6925 104.89 15.3875 104.57125 15.08375 104.41125 14.6775 104.41125 14.1675 104.41125 13.62 104.60625 13.1825 104.99625 12.8575 105.3875 12.53 105.91125 12.3675 106.5725 12.3675 106.9925 12.3675 107.465 12.43125 107.99 12.55875L107.99 11.81625C107.99 11.41125 107.89625 11.12625 107.71375 10.96125 107.52875 10.79625 107.21625 10.71375 106.77375 10.71375 106.25625 10.71375 105.75125 10.78875 105.255 10.93875 105.0825 10.99125 104.97375 11.0175 104.92875 11.0175 104.83875 11.0175 104.79375 10.95 104.79375 10.815L104.79375 10.51125C104.79375 10.41375 104.81 10.3425 104.83875 10.2975 104.86875 10.2525 104.92875 10.21125 105.02 10.17375 105.25125 10.06875 105.545 9.985 105.9025 9.92 106.25875 9.8575 106.6125 9.825 106.965 9.825 107.67875 9.825 108.2025 9.9725 108.54 10.27 108.8775 10.56625 109.04625 11.0175 109.04625 11.625L109.04625 15.4725C109.04625 15.6225 108.9725 15.6975 108.8225 15.6975L108.3375 15.6975C108.19625 15.6975 108.1125 15.62625 108.09125 15.48375L108.035 15.1125C107.76375 15.345 107.46625 15.525 107.14 15.6525 106.81375 15.78 106.48875 15.84375 106.1675 15.84375L106.1675 15.84375zM112.49 15.77625C111.425 15.77625 110.8925 15.24375 110.8925 14.17875L110.8925 10.87125 110.08125 10.87125C109.93125 10.87125 109.8575 10.79625 109.8575 10.64625L109.8575 10.365C109.8575 10.29 109.87375 10.23375 109.9075 10.19625 109.94125 10.15875 110.0075 10.1325 110.105 10.1175L110.92625 10.01625 111.07125 8.62125C111.0875 8.47125 111.16625 8.39625 111.30875 8.39625L111.78125 8.39625C111.93125 8.39625 112.005 8.47125 112.005 8.62125L112.005 9.99375 113.4675 9.99375C113.6175 9.99375 113.69375 10.06875 113.69375 10.21875L113.69375 10.64625C113.69375 10.79625 113.6175 10.87125 113.4675 10.87125L112.005 10.87125 112.005 14.1225C112.005 14.4 112.0675 14.595 112.19125 14.7075 112.315 14.82 112.52625 14.87625 112.8275 14.87625 112.97 14.87625 113.14625 14.8575 113.35625 14.82 113.4675 14.7975 113.54375 14.78625 113.58125 14.78625 113.64125 14.78625 113.68125 14.80375 113.705 14.8375 113.72625 14.87 113.73875 14.925 113.73875 15L113.73875 15.30375C113.73875 15.40125 113.7225 15.475 113.69375 15.5225 113.66375 15.57125 113.60375 15.61125 113.5125 15.64125 113.22125 15.73125 112.88 15.77625 112.49 15.77625"/>
  </g>
</svg>
